<svg width="48" height="30" viewBox="0 0 48 30" fill="none" xmlns="http://www.w3.org/2000/svg">
<path fill-rule="evenodd" clip-rule="evenodd" d="M12.0417 6.21296C12.5921 6.21296 13.1336 6.25117 13.6641 6.32356C15.7517 2.8974 19.5226 0.609619 23.8281 0.609619C28.1335 0.609619 31.9045 2.8974 33.992 6.32356C34.5226 6.25117 35.064 6.21296 35.6145 6.21296C42.1831 6.21296 47.508 11.5379 47.508 18.1065C47.508 24.6751 42.1831 30 35.6145 30C35.2257 30 34.8414 29.9811 34.4622 29.9446H13.194C12.8148 29.9811 12.4305 30 12.0417 30C5.4731 30 0.148193 24.6751 0.148193 18.1065C0.148193 11.5379 5.4731 6.21296 12.0417 6.21296Z" fill="url(#paint0_linear_92_3856)"/>
<defs>
<linearGradient id="paint0_linear_92_3856" x1="0.148193" y1="15.3048" x2="47.508" y2="15.3048" gradientUnits="userSpaceOnUse">
<stop stop-color="#E4E1F7"/>
<stop offset="0.490196" stop-color="#CBE2F6"/>
<stop offset="1" stop-color="#DAEDE8"/>
</linearGradient>
</defs>
</svg>
