<svg width="86" height="53" viewBox="0 0 86 53" fill="none" xmlns="http://www.w3.org/2000/svg">
<path fill-rule="evenodd" clip-rule="evenodd" d="M65.3666 3.37354L68.2243 7.37855L73.5326 16.0533L79.8561 25.317C79.9286 25.4205 79.9999 25.5253 80.0696 25.6301L80.114 25.6946L80.1172 25.7013C81.7397 28.1677 82.677 31.0738 82.677 34.1853C82.677 43.1175 74.9611 50.3584 65.4431 50.3584C55.9251 50.3584 48.2092 43.1175 48.2092 34.1853C48.2092 32.2905 48.5573 30.4727 49.1954 28.7831L49.1981 28.7765C49.7759 27.2481 50.5914 25.825 51.603 24.5469L51.6043 24.5444L57.2647 16.0533L63.2146 6.08266L65.3666 3.37354Z" fill="#DCDCDC"/>
<path d="M6.40898 16.5307C5.94484 17.061 5.15464 17.0996 4.64443 16.6171C4.13421 16.1347 4.09711 15.3136 4.56138 14.7834C4.58791 14.753 13.6449 4.19276 24.2323 14.1906C24.2695 14.2196 24.3057 14.2511 24.3404 14.2851C33.187 22.94 40.728 14.142 40.7498 14.117C41.214 13.5868 42.0042 13.5482 42.5144 14.0306C43.0246 14.5131 43.0617 15.3341 42.5974 15.8644C42.5709 15.8947 33.514 26.455 22.9266 16.4568C22.8894 16.4278 22.8532 16.3963 22.8184 16.3623C13.9718 7.70761 6.43085 16.5058 6.40898 16.5307Z" fill="#DCDCDC"/>
<path d="M6.40898 27.7473C5.94484 28.2775 5.15464 28.3161 4.64443 27.8337C4.13421 27.3513 4.09711 26.5302 4.56138 26C4.58791 25.9696 13.6449 15.4093 24.2323 25.4072C24.2695 25.4362 24.3057 25.4676 24.3404 25.5017C33.187 34.1566 40.728 25.3585 40.7498 25.3336C41.214 24.8033 42.0042 24.7648 42.5144 25.2472C43.0246 25.7296 43.0617 26.5507 42.5974 27.0809C42.5709 27.1113 33.514 37.6716 22.9266 27.6733C22.8894 27.6443 22.8532 27.6129 22.8184 27.5788C13.9718 18.9242 6.43085 27.7224 6.40898 27.7473Z" fill="#DCDCDC"/>
<path d="M6.40898 38.9639C5.94484 39.4941 5.15464 39.5327 4.64443 39.0502C4.13421 38.5678 4.09711 37.7467 4.56138 37.2165C4.58791 37.1862 13.6449 26.6259 24.2323 36.6237C24.2695 36.6527 24.3057 36.6842 24.3404 36.7182C33.187 45.3731 40.728 36.5751 40.7498 36.5501C41.214 36.0199 42.0042 35.9813 42.5144 36.4637C43.0246 36.9462 43.0617 37.7673 42.5974 38.2975C42.5709 38.3278 33.514 48.8881 22.9266 38.8899C22.8894 38.8609 22.8532 38.8294 22.8184 38.7954C13.9718 30.1407 6.43085 38.9389 6.40898 38.9639Z" fill="#DCDCDC"/>
</svg>
