<svg width="79" height="52" viewBox="0 0 79 52" fill="none" xmlns="http://www.w3.org/2000/svg">
<path d="M15.4104 36.6913L3.40093 29.8157C3.14398 29.6686 2.96162 29.4483 2.87084 29.2001C2.77769 28.9452 2.77374 28.655 2.87531 28.3766C3.85339 25.6955 5.11513 23.1549 6.62315 20.7926C7.78398 18.9739 9.09992 17.251 10.5541 15.6413L14.4471 19.6521C15.1731 20.4005 16.2569 20.5325 16.8604 19.9471L17.2154 19.6023C17.8185 19.0166 17.7185 17.9289 16.9923 17.1807L13.0484 13.1172C15.9692 10.415 19.2987 8.15568 22.9313 6.446L25.1697 11.6595C25.5812 12.6175 26.5466 13.1281 27.3189 12.7962L27.7737 12.601C28.546 12.2691 28.8407 11.2174 28.4292 10.2594L26.2076 5.08464C29.8292 3.77146 33.7055 2.98017 37.7453 2.80107V8.4569C37.7453 9.4994 38.431 10.3496 39.2717 10.3496H39.7664C40.6073 10.3496 41.2927 9.4994 41.2927 8.45677L41.2929 2.80239C45.334 2.98425 49.211 3.77948 52.8332 5.09649L50.6164 10.2594C50.2051 11.2174 50.4998 12.2689 51.272 12.601L51.7268 12.7962C52.4991 13.1281 53.4647 12.6175 53.8759 11.6595L56.1082 6.46073C59.737 8.17266 63.0627 10.4328 65.98 13.1351L62.0533 17.1807C61.3273 17.9289 61.2271 19.0166 61.8303 19.6023L62.1853 19.947C62.7885 20.5325 63.8725 20.4005 64.5986 19.6521L68.4721 15.6615C69.9291 17.2765 71.2476 19.0056 72.41 20.8314C73.9227 23.2073 75.1867 25.7638 76.1648 28.4634C76.2641 28.7382 76.2591 29.0253 76.1661 29.2788C76.0743 29.5296 75.892 29.751 75.6369 29.8968L63.6308 36.7706C63.4653 36.8654 63.3066 36.92 63.1586 36.9338C62.9967 36.949 62.8267 36.9266 62.6526 36.8667C62.4822 36.8078 62.3377 36.7221 62.2213 36.6121C62.1075 36.5043 62.0143 36.3627 61.9444 36.1904C61.335 34.6916 60.577 33.2642 59.6889 31.9272C58.7874 30.5696 57.7612 29.3151 56.6285 28.1824C54.4019 25.9554 51.7332 24.157 48.7605 22.9257C45.9025 21.7414 42.7755 21.0877 39.5043 21.0877C37.9769 21.0877 36.481 21.2303 35.0296 21.5026C34.7304 21.5589 34.4953 21.7243 34.3413 21.9865C34.1874 22.2489 34.1575 22.5348 34.2544 22.8231L34.4903 23.5266C34.6518 24.0079 35.1343 24.2929 35.6337 24.2023C36.8878 23.9746 38.1815 23.8558 39.5043 23.8558C42.4182 23.8558 45.1903 24.4327 47.7119 25.4774C50.3274 26.561 52.6882 28.1559 54.6716 30.1398C55.6889 31.1572 56.5995 32.2667 57.3862 33.4518C58.1691 34.6304 58.8397 35.8947 59.3821 37.2286C59.6009 37.7666 59.9158 38.2307 60.3186 38.6126C60.7192 38.992 61.2008 39.2812 61.7555 39.4726C62.3063 39.6627 62.8605 39.7317 63.4074 39.6803C63.9676 39.6277 64.5035 39.4576 65.0037 39.1709L77.01 32.2973C77.8474 31.8178 78.4498 31.0782 78.761 30.2304C79.071 29.3846 79.0887 28.4319 78.7596 27.5225C77.7162 24.6426 76.3609 21.9045 74.7344 19.3498C73.2323 16.9906 71.511 14.8011 69.6014 12.8136C69.5435 12.7106 69.4709 12.6152 69.3836 12.5306L69.0287 12.1856C68.965 12.1239 68.8959 12.0702 68.8224 12.0242C65.127 8.37768 60.7458 5.41311 55.885 3.33653C55.8589 3.32311 55.832 3.31022 55.8047 3.29877L55.35 3.10335C55.2979 3.08085 55.2448 3.06229 55.1912 3.04768C50.342 1.07863 45.0458 -0.00598145 39.5042 -0.00598145C33.8585 -0.00598145 28.4675 1.11981 23.5444 3.15941C18.471 5.26138 13.9073 8.32675 10.0851 12.1247C10.0617 12.1441 10.0389 12.1646 10.0172 12.1856L9.66212 12.5306C9.60778 12.5833 9.5591 12.6402 9.51608 12.7007C7.57439 14.7067 5.82467 16.9212 4.29874 19.311C2.67836 21.8495 1.32558 24.5715 0.280403 27.4357C-0.0502243 28.342 -0.0332489 29.2942 0.276199 30.1409C0.587746 30.994 1.1906 31.7367 2.02789 32.2161L14.0375 39.0919C14.5375 39.3779 15.0705 39.5482 15.6265 39.6007C16.1821 39.6534 16.7377 39.5866 17.2817 39.4002C17.8283 39.2127 18.308 38.9241 18.7121 38.543C19.1137 38.1646 19.4289 37.7018 19.6505 37.1625C20.1856 35.8591 20.8556 34.6076 21.6441 33.4246L21.6404 33.4222C22.4213 32.251 23.3254 31.1515 24.3369 30.1398C25.5342 28.9423 26.8687 27.8864 28.3138 26.9996C28.7213 26.7494 28.8973 26.2653 28.7452 25.8117L28.5066 25.1007C28.4053 24.7986 28.1936 24.5809 27.8949 24.4707C27.5962 24.3608 27.2938 24.3895 27.0212 24.5537C25.3251 25.5748 23.7668 26.7956 22.38 28.1824C21.2607 29.3018 20.2438 30.5434 19.3468 31.8893H19.3413C18.4687 33.1985 17.7155 34.6124 17.099 36.1135C17.0298 36.2827 16.936 36.423 16.8204 36.5319C16.708 36.6379 16.5617 36.7223 16.3844 36.7833C16.2046 36.8447 16.0374 36.8685 15.8859 36.8542C15.7345 36.84 15.5748 36.7854 15.4104 36.6913ZM28.8329 17.5557L31.1712 26.9571L35.0481 42.5408C35.0023 42.5833 34.9576 42.6266 34.9135 42.6708C33.9693 43.6149 33.3851 44.9199 33.3851 46.3613C33.3851 47.8024 33.9693 49.1074 34.9135 50.0515C35.8579 50.9961 37.1627 51.5804 38.6032 51.5804C40.044 51.5804 41.3488 50.9959 42.2929 50.0515C43.237 49.1074 43.8212 47.8024 43.8212 46.3613C43.8212 44.9202 43.2372 43.6152 42.2929 42.6708C41.4855 41.8632 40.4146 41.3191 39.2203 41.1783L33.3279 26.2657L29.768 17.256C29.6725 17.0145 29.4075 16.8887 29.1602 16.9678C28.9128 17.0474 28.77 17.3038 28.8329 17.5557Z" fill="#DCDCDC"/>
</svg>
