<svg width="86" height="54" viewBox="0 0 86 54" fill="none" xmlns="http://www.w3.org/2000/svg">
<g clip-path="url(#clip0_150_3234)">
<path fill-rule="evenodd" clip-rule="evenodd" d="M18.4948 0.976318L21.4482 5.14049L26.934 14.16L33.4692 23.7918C33.5442 23.8994 33.6178 24.0084 33.69 24.1174L33.7359 24.1845L33.7391 24.1914C35.4159 26.7558 36.3846 29.7774 36.3846 33.0125C36.3846 42.2997 28.4105 49.8284 18.574 49.8284C8.7374 49.8284 0.763306 42.2997 0.763306 33.0125C0.763306 31.0424 1.12298 29.1524 1.7825 27.3957L1.78531 27.3887C2.38232 25.7996 3.22511 24.32 4.27073 22.9912L4.27207 22.9884L10.1218 14.16L16.2709 3.7931L18.4948 0.976318Z" fill="#DCDCDC"/>
<path fill-rule="evenodd" clip-rule="evenodd" d="M55.1439 1.0321L57.1579 3.85469L60.899 9.96833L65.3556 16.4972C65.4068 16.5701 65.4569 16.6439 65.5062 16.7178L65.5375 16.7632L65.5397 16.768C66.6832 18.5062 67.3438 20.5544 67.3438 22.7471C67.3438 29.0424 61.9059 34.1455 55.1979 34.1455C48.49 34.1455 43.052 29.0424 43.052 22.7471C43.052 21.4118 43.2972 20.1308 43.7471 18.94L43.7489 18.9352C44.1561 17.8581 44.7308 16.8551 45.4438 15.9545L45.4448 15.9526L49.434 9.96833L53.6273 2.94142L55.1439 1.0321Z" fill="#DCDCDC"/>
<path fill-rule="evenodd" clip-rule="evenodd" d="M74.776 26.7111L76.3624 28.9345L79.3094 33.7502L82.8199 38.8931C82.8601 38.9505 82.8997 39.0088 82.9384 39.0669L82.9632 39.1027L82.9649 39.1064C83.8656 40.4756 84.3859 42.089 84.3859 43.8163C84.3859 48.7751 80.1025 52.7949 74.8185 52.7949C69.5346 52.7949 65.251 48.7751 65.251 43.8163C65.251 42.7645 65.4443 41.7553 65.7986 40.8173L65.8 40.8136C66.1208 39.9651 66.5735 39.1751 67.135 38.4657L67.1358 38.4641L70.2782 33.7502L73.5813 28.2151L74.776 26.7111Z" fill="#DCDCDC"/>
</g>
<defs>
<clipPath id="clip0_150_3234">
<rect width="84.4734" height="52.9231" fill="white" transform="translate(0.763306 0.976318)"/>
</clipPath>
</defs>
</svg>
