<svg width="33" height="33" viewBox="0 0 33 33" fill="none" xmlns="http://www.w3.org/2000/svg">
<g clip-path="url(#clip0_59_113)" filter="url(#filter0_d_59_113)">
<path d="M16.5 18.625C18.2259 18.625 19.625 17.2259 19.625 15.5C19.625 13.7741 18.2259 12.375 16.5 12.375C14.7741 12.375 13.375 13.7741 13.375 15.5C13.375 17.2259 14.7741 18.625 16.5 18.625Z" stroke="white" stroke-width="2" stroke-linecap="round" stroke-linejoin="round"/>
<path d="M24.2083 18.625C24.0696 18.9392 24.0283 19.2877 24.0895 19.6256C24.1508 19.9635 24.3119 20.2753 24.552 20.5208L24.6145 20.5833C24.8082 20.7768 24.9619 21.0066 25.0668 21.2595C25.1716 21.5124 25.2256 21.7835 25.2256 22.0573C25.2256 22.3311 25.1716 22.6022 25.0668 22.8551C24.9619 23.108 24.8082 23.3378 24.6145 23.5312C24.4211 23.7249 24.1913 23.8786 23.9384 23.9835C23.6855 24.0883 23.4144 24.1423 23.1406 24.1423C22.8668 24.1423 22.5957 24.0883 22.3428 23.9835C22.0899 23.8786 21.8601 23.7249 21.6666 23.5312L21.6041 23.4687C21.3586 23.2286 21.0468 23.0675 20.7089 23.0062C20.371 22.945 20.0225 22.9863 19.7083 23.125C19.4002 23.257 19.1374 23.4763 18.9524 23.7558C18.7673 24.0352 18.668 24.3627 18.6666 24.6979V24.875C18.6666 25.4275 18.4471 25.9574 18.0564 26.3481C17.6657 26.7388 17.1358 26.9583 16.5833 26.9583C16.0308 26.9583 15.5009 26.7388 15.1102 26.3481C14.7195 25.9574 14.5 25.4275 14.5 24.875V24.7812C14.4919 24.4365 14.3803 24.1021 14.1797 23.8216C13.979 23.541 13.6986 23.3274 13.375 23.2083C13.0608 23.0697 12.7123 23.0283 12.3743 23.0896C12.0364 23.1508 11.7246 23.3119 11.4791 23.5521L11.4166 23.6146C11.2231 23.8083 10.9934 23.9619 10.7405 24.0668C10.4875 24.1716 10.2165 24.2256 9.94267 24.2256C9.66889 24.2256 9.39779 24.1716 9.14488 24.0668C8.89196 23.9619 8.6622 23.8083 8.46871 23.6146C8.27501 23.4211 8.12134 23.1913 8.0165 22.9384C7.91166 22.6855 7.8577 22.4144 7.8577 22.1406C7.8577 21.8668 7.91166 21.5957 8.0165 21.3428C8.12134 21.0899 8.27501 20.8602 8.46871 20.6667L8.53121 20.6042C8.77135 20.3587 8.93244 20.0469 8.99371 19.7089C9.05498 19.371 9.01362 19.0225 8.87496 18.7083C8.74291 18.4002 8.52366 18.1375 8.24419 17.9524C7.96473 17.7673 7.63724 17.668 7.30204 17.6667H7.12496C6.57243 17.6667 6.04252 17.4472 5.65182 17.0565C5.26112 16.6658 5.04163 16.1359 5.04163 15.5833C5.04163 15.0308 5.26112 14.5009 5.65182 14.1102C6.04252 13.7195 6.57243 13.5 7.12496 13.5H7.21871C7.5635 13.4919 7.89788 13.3803 8.1784 13.1797C8.45891 12.9791 8.67258 12.6987 8.79163 12.375C8.93029 12.0608 8.97165 11.7123 8.91038 11.3744C8.84911 11.0365 8.68802 10.7247 8.44788 10.4792L8.38538 10.4167C8.19168 10.2232 8.03801 9.99341 7.93317 9.7405C7.82833 9.48759 7.77436 9.21649 7.77436 8.94271C7.77436 8.66892 7.82833 8.39783 7.93317 8.14491C8.03801 7.892 8.19168 7.66223 8.38538 7.46875C8.57886 7.27505 8.80863 7.12138 9.06154 7.01654C9.31446 6.9117 9.58555 6.85773 9.85933 6.85773C10.1331 6.85773 10.4042 6.9117 10.6571 7.01654C10.91 7.12138 11.1398 7.27505 11.3333 7.46875L11.3958 7.53125C11.6413 7.77139 11.9531 7.93248 12.291 7.99375C12.6289 8.05502 12.9774 8.01366 13.2916 7.875H13.375C13.6831 7.74295 13.9458 7.5237 14.1309 7.24423C14.316 6.96476 14.4153 6.63728 14.4166 6.30208V6.125C14.4166 5.57246 14.6361 5.04256 15.0268 4.65186C15.4175 4.26116 15.9474 4.04166 16.5 4.04166C17.0525 4.04166 17.5824 4.26116 17.9731 4.65186C18.3638 5.04256 18.5833 5.57246 18.5833 6.125V6.21875C18.5846 6.55394 18.684 6.88143 18.869 7.1609C19.0541 7.44037 19.3169 7.65962 19.625 7.79166C19.9391 7.93033 20.2877 7.97169 20.6256 7.91042C20.9635 7.84915 21.2753 7.68806 21.5208 7.44791L21.5833 7.38541C21.7768 7.19171 22.0065 7.03805 22.2595 6.93321C22.5124 6.82836 22.7835 6.7744 23.0573 6.7744C23.331 6.7744 23.6021 6.82836 23.855 6.93321C24.108 7.03805 24.3377 7.19171 24.5312 7.38541C24.7249 7.5789 24.8786 7.80867 24.9834 8.06158C25.0883 8.31449 25.1422 8.58559 25.1422 8.85937C25.1422 9.13316 25.0883 9.40425 24.9834 9.65717C24.8786 9.91008 24.7249 10.1398 24.5312 10.3333L24.4687 10.3958C24.2286 10.6413 24.0675 10.9531 24.0062 11.2911C23.9449 11.629 23.9863 11.9775 24.125 12.2917V12.375C24.257 12.6831 24.4763 12.9458 24.7557 13.1309C25.0352 13.316 25.3627 13.4153 25.6979 13.4167H25.875C26.4275 13.4167 26.9574 13.6362 27.3481 14.0269C27.7388 14.4176 27.9583 14.9475 27.9583 15.5C27.9583 16.0525 27.7388 16.5824 27.3481 16.9731C26.9574 17.3638 26.4275 17.5833 25.875 17.5833H25.7812C25.446 17.5847 25.1185 17.684 24.8391 17.8691C24.5596 18.0541 24.3403 18.3169 24.2083 18.625Z" stroke="white" stroke-width="2" stroke-linecap="round" stroke-linejoin="round"/>
</g>
<defs>
<filter id="filter0_d_59_113" x="0" y="0" width="33" height="33" filterUnits="userSpaceOnUse" color-interpolation-filters="sRGB">
<feFlood flood-opacity="0" result="BackgroundImageFix"/>
<feColorMatrix in="SourceAlpha" type="matrix" values="0 0 0 0 0 0 0 0 0 0 0 0 0 0 0 0 0 0 127 0" result="hardAlpha"/>
<feOffset dy="1"/>
<feGaussianBlur stdDeviation="2"/>
<feComposite in2="hardAlpha" operator="out"/>
<feColorMatrix type="matrix" values="0 0 0 0 0 0 0 0 0 0 0 0 0 0 0 0 0 0 0.25 0"/>
<feBlend mode="normal" in2="BackgroundImageFix" result="effect1_dropShadow_59_113"/>
<feBlend mode="normal" in="SourceGraphic" in2="effect1_dropShadow_59_113" result="shape"/>
</filter>
<clipPath id="clip0_59_113">
<rect width="25" height="25" fill="white" transform="translate(4 3)"/>
</clipPath>
</defs>
</svg>
