<svg width="33" height="31" viewBox="0 0 33 31" fill="none" xmlns="http://www.w3.org/2000/svg">
<path fill-rule="evenodd" clip-rule="evenodd" d="M8.28732 3.90437C8.67085 3.90437 9.04813 3.931 9.41783 3.98144C10.8724 1.59411 13.5 0 16.5 0C19.5 0 22.1276 1.59411 23.5822 3.98144C23.9519 3.931 24.3291 3.90437 24.7127 3.90437C29.2896 3.90437 33 7.61474 33 12.1917C33 16.7687 29.2896 20.479 24.7127 20.479C24.4418 20.479 24.174 20.4658 23.9098 20.4404H9.09025C8.82602 20.4658 8.55822 20.479 8.28732 20.479C3.71036 20.479 0 16.7687 0 12.1917C0 7.61474 3.71036 3.90437 8.28732 3.90437Z" fill="url(#paint0_linear_31_314)"/>
<path fill-rule="evenodd" clip-rule="evenodd" d="M5.16278 27.2545L5.67506 27.4667L6.18729 27.6789L6.39949 28.1911L6.61169 28.7034L6.39949 29.2157L6.18729 29.7279L5.67506 29.9401L5.16278 30.1523L4.65049 29.9401L4.13826 29.7279L3.92607 29.2157L3.71387 28.7034L3.92607 28.1911L4.13826 27.6789L4.65049 27.4667L5.16278 27.2545Z" fill="url(#paint1_linear_31_314)"/>
<path fill-rule="evenodd" clip-rule="evenodd" d="M7.58257 22.7946L8.09486 23.0068L8.60709 23.219L8.81929 23.7312L9.03149 24.2435L8.81929 24.7558L8.60709 25.268L8.09486 25.4802L7.58257 25.6924L7.07029 25.4802L6.55806 25.268L6.34586 24.7558L6.13367 24.2435L6.34586 23.7312L6.55806 23.219L7.07029 23.0068L7.58257 22.7946Z" fill="url(#paint2_linear_31_314)"/>
<path fill-rule="evenodd" clip-rule="evenodd" d="M9.46258 27.3133L9.97486 27.5255L10.4871 27.7377L10.6993 28.2499L10.9115 28.7622L10.6993 29.2745L10.4871 29.7867L9.97486 29.9989L9.46258 30.2111L8.9503 29.9989L8.43807 29.7867L8.22587 29.2745L8.01367 28.7622L8.22587 28.2499L8.43807 27.7377L8.9503 27.5255L9.46258 27.3133Z" fill="url(#paint3_linear_31_314)"/>
<path fill-rule="evenodd" clip-rule="evenodd" d="M11.8823 22.7946L12.3945 23.0068L12.9068 23.219L13.119 23.7312L13.3312 24.2435L13.119 24.7558L12.9068 25.268L12.3945 25.4802L11.8823 25.6924L11.37 25.4802L10.8577 25.268L10.6455 24.7558L10.4333 24.2435L10.6455 23.7312L10.8577 23.219L11.37 23.0068L11.8823 22.7946Z" fill="url(#paint4_linear_31_314)"/>
<path fill-rule="evenodd" clip-rule="evenodd" d="M13.7624 27.3133L14.2747 27.5255L14.7869 27.7377L14.9991 28.2499L15.2113 28.7622L14.9991 29.2745L14.7869 29.7867L14.2747 29.9989L13.7624 30.2111L13.2501 29.9989L12.7379 29.7867L12.5257 29.2745L12.3135 28.7622L12.5257 28.2499L12.7379 27.7377L13.2501 27.5255L13.7624 27.3133Z" fill="url(#paint5_linear_31_314)"/>
<path fill-rule="evenodd" clip-rule="evenodd" d="M16.1821 22.7946L16.6943 23.0068L17.2066 23.219L17.4188 23.7312L17.631 24.2435L17.4188 24.7558L17.2066 25.268L16.6943 25.4802L16.1821 25.6924L15.6698 25.4802L15.1576 25.268L14.9454 24.7558L14.7332 24.2435L14.9454 23.7312L15.1576 23.219L15.6698 23.0068L16.1821 22.7946Z" fill="url(#paint6_linear_31_314)"/>
<path fill-rule="evenodd" clip-rule="evenodd" d="M18.0621 27.3133L18.5744 27.5255L19.0866 27.7377L19.2988 28.2499L19.511 28.7622L19.2988 29.2745L19.0866 29.7867L18.5744 29.9989L18.0621 30.2111L17.5498 29.9989L17.0376 29.7867L16.8254 29.2745L16.6132 28.7622L16.8254 28.2499L17.0376 27.7377L17.5498 27.5255L18.0621 27.3133Z" fill="url(#paint7_linear_31_314)"/>
<path fill-rule="evenodd" clip-rule="evenodd" d="M20.4819 22.7358L20.9942 22.948L21.5064 23.1602L21.7186 23.6725L21.9308 24.1848L21.7186 24.697L21.5064 25.2093L20.9942 25.4215L20.4819 25.6337L19.9696 25.4215L19.4574 25.2093L19.2452 24.697L19.033 24.1848L19.2452 23.6725L19.4574 23.1602L19.9696 22.948L20.4819 22.7358Z" fill="url(#paint8_linear_31_314)"/>
<path fill-rule="evenodd" clip-rule="evenodd" d="M22.3619 27.3133L22.8742 27.5255L23.3864 27.7377L23.5986 28.2499L23.8108 28.7622L23.5986 29.2745L23.3864 29.7867L22.8742 29.9989L22.3619 30.2111L21.8496 29.9989L21.3374 29.7867L21.1252 29.2745L20.913 28.7622L21.1252 28.2499L21.3374 27.7377L21.8496 27.5255L22.3619 27.3133Z" fill="url(#paint9_linear_31_314)"/>
<path fill-rule="evenodd" clip-rule="evenodd" d="M24.7817 22.7946L25.294 23.0068L25.8062 23.219L26.0184 23.7312L26.2306 24.2435L26.0184 24.7558L25.8062 25.268L25.294 25.4802L24.7817 25.6924L24.2694 25.4802L23.7572 25.268L23.545 24.7558L23.3328 24.2435L23.545 23.7312L23.7572 23.219L24.2694 23.0068L24.7817 22.7946Z" fill="url(#paint10_linear_31_314)"/>
<defs>
<linearGradient id="paint0_linear_31_314" x1="0" y1="10.2395" x2="33" y2="10.2395" gradientUnits="userSpaceOnUse">
<stop stop-color="#E4E1F7"/>
<stop offset="0.490196" stop-color="#CBE2F6"/>
<stop offset="1" stop-color="#DAEDE8"/>
</linearGradient>
<linearGradient id="paint1_linear_31_314" x1="3.71387" y1="172.146" x2="293.496" y2="172.146" gradientUnits="userSpaceOnUse">
<stop stop-color="#D5E9F9"/>
<stop offset="0.678431" stop-color="#C1DAFC"/>
<stop offset="1" stop-color="#ADCBFF"/>
</linearGradient>
<linearGradient id="paint2_linear_31_314" x1="6.13367" y1="167.686" x2="295.915" y2="167.686" gradientUnits="userSpaceOnUse">
<stop stop-color="#D5E9F9"/>
<stop offset="0.678431" stop-color="#C1DAFC"/>
<stop offset="1" stop-color="#ADCBFF"/>
</linearGradient>
<linearGradient id="paint3_linear_31_314" x1="8.01367" y1="172.204" x2="297.795" y2="172.204" gradientUnits="userSpaceOnUse">
<stop stop-color="#D5E9F9"/>
<stop offset="0.678431" stop-color="#C1DAFC"/>
<stop offset="1" stop-color="#ADCBFF"/>
</linearGradient>
<linearGradient id="paint4_linear_31_314" x1="10.4333" y1="167.686" x2="300.215" y2="167.686" gradientUnits="userSpaceOnUse">
<stop stop-color="#D5E9F9"/>
<stop offset="0.678431" stop-color="#C1DAFC"/>
<stop offset="1" stop-color="#ADCBFF"/>
</linearGradient>
<linearGradient id="paint5_linear_31_314" x1="12.3135" y1="172.204" x2="302.095" y2="172.204" gradientUnits="userSpaceOnUse">
<stop stop-color="#D5E9F9"/>
<stop offset="0.678431" stop-color="#C1DAFC"/>
<stop offset="1" stop-color="#ADCBFF"/>
</linearGradient>
<linearGradient id="paint6_linear_31_314" x1="14.7332" y1="167.686" x2="304.515" y2="167.686" gradientUnits="userSpaceOnUse">
<stop stop-color="#D5E9F9"/>
<stop offset="0.678431" stop-color="#C1DAFC"/>
<stop offset="1" stop-color="#ADCBFF"/>
</linearGradient>
<linearGradient id="paint7_linear_31_314" x1="16.6132" y1="172.204" x2="306.395" y2="172.204" gradientUnits="userSpaceOnUse">
<stop stop-color="#D5E9F9"/>
<stop offset="0.678431" stop-color="#C1DAFC"/>
<stop offset="1" stop-color="#ADCBFF"/>
</linearGradient>
<linearGradient id="paint8_linear_31_314" x1="19.033" y1="167.627" x2="308.815" y2="167.627" gradientUnits="userSpaceOnUse">
<stop stop-color="#D5E9F9"/>
<stop offset="0.678431" stop-color="#C1DAFC"/>
<stop offset="1" stop-color="#ADCBFF"/>
</linearGradient>
<linearGradient id="paint9_linear_31_314" x1="20.913" y1="172.204" x2="310.695" y2="172.204" gradientUnits="userSpaceOnUse">
<stop stop-color="#D5E9F9"/>
<stop offset="0.678431" stop-color="#C1DAFC"/>
<stop offset="1" stop-color="#ADCBFF"/>
</linearGradient>
<linearGradient id="paint10_linear_31_314" x1="23.3328" y1="167.686" x2="313.115" y2="167.686" gradientUnits="userSpaceOnUse">
<stop stop-color="#D5E9F9"/>
<stop offset="0.678431" stop-color="#C1DAFC"/>
<stop offset="1" stop-color="#ADCBFF"/>
</linearGradient>
</defs>
</svg>
