<svg width="27" height="27" viewBox="0 0 27 27" fill="none" xmlns="http://www.w3.org/2000/svg">
<path fill-rule="evenodd" clip-rule="evenodd" d="M2.6358 5.4878C7.0608 -0.51233 15.5121 -1.78922 21.5122 2.6358C27.5123 7.0608 28.7892 15.5121 24.3642 21.5122C19.9392 27.5123 11.4879 28.7892 5.4878 24.3642C-0.512329 19.9392 -1.78922 11.4879 2.6358 5.4878Z" fill="url(#paint0_linear_31_349)"/>
<path fill-rule="evenodd" clip-rule="evenodd" d="M5.62551 25.5121C8.30293 25.5121 10.4734 23.3931 10.4734 20.7791C10.4734 19.1575 9.63802 17.7267 8.36465 16.8738V4.09959C8.36465 2.66308 7.18932 1.48779 5.75283 1.48779H5.75281C4.31629 1.48779 3.14101 2.66308 3.14101 4.09959V16.7144C1.72549 17.5408 0.777588 19.0518 0.777588 20.7791C0.777588 23.3931 2.94809 25.5121 5.62551 25.5121Z" fill="url(#paint1_linear_31_349)"/>
<path fill-rule="evenodd" clip-rule="evenodd" d="M5.62545 24.4581C7.70662 24.4581 9.39372 22.811 9.39372 20.7791C9.39372 19.2617 8.45265 17.959 7.10932 17.3965V3.94779C7.10932 3.20167 6.49888 2.59125 5.75277 2.59125H5.75275C5.00665 2.59125 4.39623 3.20167 4.39623 3.94779V17.3005C2.91867 17.7981 1.85718 19.1675 1.85718 20.7791C1.85718 22.811 3.54431 24.4581 5.62545 24.4581Z" fill="url(#paint2_linear_31_349)"/>
<defs>
<linearGradient id="paint0_linear_31_349" x1="5.4878" y1="24.3642" x2="21.5122" y2="2.6358" gradientUnits="userSpaceOnUse">
<stop stop-color="#FFC952"/>
<stop offset="1" stop-color="#FCF4AA"/>
</linearGradient>
<linearGradient id="paint1_linear_31_349" x1="0.777588" y1="13.5" x2="10.4734" y2="13.5" gradientUnits="userSpaceOnUse">
<stop stop-color="#E2EBF3"/>
<stop offset="1" stop-color="#FFFEF6"/>
</linearGradient>
<linearGradient id="paint2_linear_31_349" x1="1.85718" y1="13.5247" x2="9.39372" y2="13.5247" gradientUnits="userSpaceOnUse">
<stop stop-color="#E31E24"/>
<stop offset="1" stop-color="#E57E7E"/>
</linearGradient>
</defs>
</svg>
