<svg width="86" height="54" viewBox="0 0 86 54" fill="none" xmlns="http://www.w3.org/2000/svg">
<g clip-path="url(#clip0_150_3226)">
<path fill-rule="evenodd" clip-rule="evenodd" d="M45.6138 1.80139C50.4846 1.80139 54.4328 5.75095 54.4328 10.6222C54.4328 15.494 50.4846 19.4436 45.6138 19.4436C45.1998 19.4436 44.7922 19.4991 44.3938 19.4547C44.3238 19.447 44.2631 19.4436 44.1926 19.4436H2.36562C1.55135 19.4436 0.887329 18.7793 0.887329 17.965V17.6003C0.887329 16.786 1.55135 16.1217 2.36562 16.1217H38.7182H44.308H45.7708C45.7977 16.1217 45.8206 16.1212 45.8481 16.12C48.7512 15.9968 51.0685 13.5572 51.0685 10.6227C51.0685 7.60934 48.6262 5.16694 45.6138 5.16694C43.7762 5.16694 42.1504 6.07613 41.1618 7.46959C40.5974 8.26508 38.6068 8.32338 38.0631 7.35089C37.8238 6.92426 37.8334 6.43709 38.0889 6.02007C39.6397 3.48976 42.4295 1.80139 45.6138 1.80139Z" fill="#DCDCDC"/>
<path fill-rule="evenodd" clip-rule="evenodd" d="M61.4735 12.287C63.3828 8.00223 67.6786 5.01489 72.6722 5.01489C79.4399 5.01489 84.9265 10.5027 84.9265 17.2726C84.9265 24.0417 79.4399 29.5295 72.6722 29.5295C72.444 29.5295 72.2176 29.5221 71.9924 29.5099C71.9678 29.5087 71.9463 29.5082 71.921 29.5082H2.36562C1.55135 29.5082 0.887329 28.8439 0.887329 28.0296V27.7977C0.887329 26.9834 1.55135 26.3192 2.36562 26.3192H72.5909L72.6536 26.3199C72.6665 26.3204 72.6777 26.3204 72.6911 26.3199L72.7439 26.3192C72.7506 26.3192 72.7562 26.3192 72.7628 26.3192H72.9596L72.9591 26.3159C77.8219 26.1639 81.7181 22.1733 81.7181 17.2726C81.7181 12.2751 77.6678 8.2241 72.6722 8.2241C69.0656 8.2241 65.9519 10.3345 64.4993 13.3884C64.0236 14.3868 62.1607 14.4468 61.572 13.5392C61.3222 13.1541 61.2869 12.7062 61.4735 12.287Z" fill="#DCDCDC"/>
<path fill-rule="evenodd" clip-rule="evenodd" d="M59.5843 53.5095C64.4549 53.5095 68.4033 49.5606 68.4033 44.6888C68.4033 39.817 64.4549 35.8673 59.5843 35.8673C59.1405 35.8673 58.7106 35.8203 58.2785 35.8673H14.8001C14.0754 35.8673 13.4841 36.4587 13.4841 37.1837V37.873C13.4841 38.5979 14.0754 39.1893 14.8001 39.1893H52.6887H58.2785H59.7776V39.2368C62.7004 39.3388 65.0384 41.7401 65.0384 44.6888C65.0384 47.7017 62.5965 50.1446 59.5843 50.1446C57.7467 50.1446 56.1208 49.2347 55.1327 47.8419C54.523 46.9842 52.5431 47.0499 52.033 47.9606C51.7942 48.3873 51.8038 48.8738 52.0593 49.2913C53.6089 51.8213 56.4 53.5095 59.5843 53.5095Z" fill="#DCDCDC"/>
</g>
<defs>
<clipPath id="clip0_150_3226">
<rect width="84.4734" height="52.9231" fill="white" transform="translate(0.763306 0.976318)"/>
</clipPath>
</defs>
</svg>
