<svg width="48" height="30" viewBox="0 0 48 30" fill="none" xmlns="http://www.w3.org/2000/svg">
<path fill-rule="evenodd" clip-rule="evenodd" d="M11.8935 6.21296C12.4439 6.21296 12.9854 6.25117 13.516 6.32356C15.6035 2.8974 19.3745 0.609619 23.6799 0.609619C27.9853 0.609619 31.7563 2.8974 33.8438 6.32356C34.3744 6.25117 34.9158 6.21296 35.4663 6.21296C42.0349 6.21296 47.3598 11.5379 47.3598 18.1065C47.3598 24.6751 42.0349 30 35.4663 30C35.0775 30 34.6932 29.9811 34.314 29.9446H13.0458C12.6666 29.9811 12.2823 30 11.8935 30C5.32491 30 0 24.6751 0 18.1065C0 11.5379 5.32491 6.21296 11.8935 6.21296Z" fill="url(#paint0_linear_92_3858)"/>
<defs>
<linearGradient id="paint0_linear_92_3858" x1="0" y1="15.3048" x2="47.3598" y2="15.3048" gradientUnits="userSpaceOnUse">
<stop stop-color="#E4E1F7"/>
<stop offset="0.490196" stop-color="#CBE2F6"/>
<stop offset="1" stop-color="#DAEDE8"/>
</linearGradient>
</defs>
</svg>
